<?xml version="1.0" encoding="UTF-8"?>
<svg version="1.1" xmlns="http://www.w3.org/2000/svg" width="50" height="50">
<path d="M0 0 C2.5 1.1875 2.5 1.1875 4.5 3.1875 C6.5902697 3.27765205 8.68196902 3.35644192 10.77416992 3.36352539 C21.14677477 3.41041511 27.92619993 5.2920504 36.5 11.1875 C36.355625 12.38375 36.21125 13.58 36.0625 14.8125 C35.43894384 20.31033316 35.11163409 25.82161586 34.78125 31.34375 C34.5 34.1875 34.5 34.1875 33.5 35.1875 C30.5 35.3125 30.5 35.3125 27.5 35.1875 C26.5 34.1875 26.5 34.1875 26.40234375 31.02734375 C26.43489583 27.4140625 26.46744792 23.80078125 26.5 20.1875 C20.23 20.1875 13.96 20.1875 7.5 20.1875 C7.520625 22.476875 7.54125 24.76625 7.5625 27.125 C7.58370868 29.47916332 7.57271741 31.83436445 7.5 34.1875 C6.5 35.1875 6.5 35.1875 3.5 35.3125 C0.5 35.1875 0.5 35.1875 -0.5 34.1875 C-0.62142519 32.3698814 -0.67966757 30.54796406 -0.7109375 28.7265625 C-0.73929687 27.61539063 -0.76765625 26.50421875 -0.796875 25.359375 C-0.84878282 23.00276 -0.89310586 20.64596522 -0.9296875 18.2890625 C-0.97609375 16.6184375 -0.97609375 16.6184375 -1.0234375 14.9140625 C-1.04325684 13.88877441 -1.06307617 12.86348633 -1.08349609 11.80712891 C-1.56205358 8.7972099 -2.31091358 8.16885763 -4.5 6.1875 C-4.6875 3 -4.6875 3 -4.5 0.1875 C-2.5 -0.8125 -2.5 -0.8125 0 0 Z " fill="#59C0BC" transform="translate(4.5,12.8125)"/>
<path d="M0 0 C2.8992226 0.46761655 3.86675182 0.86675182 6 3 C8.18745776 3.77039001 10.40008429 4.47061303 12.625 5.125 C14.40777344 5.65480469 14.40777344 5.65480469 16.2265625 6.1953125 C17.14179687 6.46085938 18.05703125 6.72640625 19 7 C18.54177532 10.46941546 18.10868317 13.67395049 17 17 C14.69 17 12.38 17 10 17 C10 18.65 10 20.3 10 22 C6.04 20.02 2.08 18.04 -2 16 C-1.85975781 13.52039864 -1.7130815 11.04147598 -1.5625 8.5625 C-1.52318359 7.85544922 -1.48386719 7.14839844 -1.44335938 6.41992188 C-1.11328125 1.11328125 -1.11328125 1.11328125 0 0 Z " fill="#59C0BC" transform="translate(31,1)"/>
<path d="M0 0 C2.75 -0.375 2.75 -0.375 6 0 C8.82341517 3.12061677 9.91607878 5.11043509 10.3125 9.3125 C10 12 10 12 9 13 C3.74503311 13.57119205 3.74503311 13.57119205 1.125 11.5625 C-0.5494151 7.74855449 -0.23678107 4.10420515 0 0 Z " fill="#59C0BC" transform="translate(14,35)"/>
</svg>
