<?xml version="1.0" encoding="UTF-8"?>
<svg version="1.1" xmlns="http://www.w3.org/2000/svg" width="50" height="50">
<path d="M0 0 C2.625 -0.1875 2.625 -0.1875 5 0 C5.3125 2.75 5.3125 2.75 5 6 C2.10182904 9.45910728 -0.48178989 10.25135357 -4.8125 10.75 C-6.2072304 10.85011115 -7.60300686 10.93912884 -9 11 C-9 12.32 -9 13.64 -9 15 C-8.44054687 14.7834375 -7.88109375 14.566875 -7.3046875 14.34375 C0.18457417 11.74297746 7.12972454 11.69380773 15 12 C15.33 12.66 15.66 13.32 16 14 C16.33 10.37 16.66 6.74 17 3 C21 4 21 4 22 5 C26.01657143 5.22918242 26.01657143 5.22918242 30 5 C30.66 4.34 31.32 3.68 32 3 C32.99 3 33.98 3 35 3 C35.08117951 5.41734542 35.14056926 7.83194949 35.1875 10.25 C35.21263672 10.93191406 35.23777344 11.61382812 35.26367188 12.31640625 C35.34041998 17.58644291 35.34041998 17.58644291 33.5 19.82226562 C31.44151104 22.81082707 31.65790943 24.9133583 31.70703125 28.515625 C31.71669922 29.76601563 31.72636719 31.01640625 31.73632812 32.3046875 C31.76146484 33.60664062 31.78660156 34.90859375 31.8125 36.25 C31.82603516 37.56742188 31.83957031 38.88484375 31.85351562 40.2421875 C31.88887449 43.49520321 31.93822967 46.747396 32 50 C30.02 50 28.04 50 26 50 C26 44.06 26 38.12 26 32 C25.34 32 24.68 32 24 32 C24 37.94 24 43.88 24 50 C22.02 50 20.04 50 18 50 C18 43.73 18 37.46 18 31 C14.7 30.34 11.4 29.68 8 29 C7.67 35.93 7.34 42.86 7 50 C5.02 50 3.04 50 1 50 C1 43.73 1 37.46 1 31 C0.34 31 -0.32 31 -1 31 C-1 37.27 -1 43.54 -1 50 C-2.98 50 -4.96 50 -7 50 C-7 40.76 -7 31.52 -7 22 C-8.65 21.67 -10.3 21.34 -12 21 C-14.21004131 19.40896369 -14.88644584 18.5554947 -15.43359375 15.87890625 C-15.43973691 12.2360126 -15.44067673 9.74723445 -13.5625 6.5625 C-10.43771336 4.6571423 -7.61877953 4.12138103 -4.0234375 3.58984375 C-1.61793975 3.12410581 -1.61793975 3.12410581 0 0 Z M22 22 C22 22.33 22 22.66 22 23 C24.64 23 27.28 23 30 23 C30 22.67 30 22.34 30 22 C27.36 22 24.72 22 22 22 Z " fill="#59C0BC" transform="translate(15,0)"/>
</svg>
