<?xml version="1.0" encoding="UTF-8"?>
<svg version="1.1" xmlns="http://www.w3.org/2000/svg" width="100" height="100">
<path d="M0 0 C4.54054054 2.08108108 4.54054054 2.08108108 6 5 C8.22468387 5.23193174 8.22468387 5.23193174 10 3.0625 C10.66 2.381875 11.32 1.70125 12 1 C15.47636159 -0.7381808 19.199041 -0.45508953 23 0 C27.84221749 2.37542745 30.48559465 5.25056767 33 10 C33.75 13.875 33.75 13.875 34 17 C34.94359375 16.87818359 34.94359375 16.87818359 35.90625 16.75390625 C39.96078581 16.45470105 42.87405567 16.30472481 46.41015625 18.48828125 C52.83779461 24.12267204 52.83779461 24.12267204 53.23828125 28.7578125 C53.39152524 35.71025056 53.3677685 41.34601747 49 47 C46.10222448 50.02174453 42.8705797 52.36244705 39 54 C39.495 54.7425 39.99 55.485 40.5 56.25 C43.15938856 61.60695016 43.1142296 68.52511448 41.30859375 74.15625 C38.64460647 79.23900397 34.44093843 83.18635386 29 85 C27.00179272 85.09435979 25.00042797 85.12990301 23 85.125 C21.948125 85.12757812 20.89625 85.13015625 19.8125 85.1328125 C17 85 17 85 14 84 C12.33541327 83.90691456 10.66718003 83.87003815 9 83.875 C8.13375 83.87242188 7.2675 83.86984375 6.375 83.8671875 C3.84988305 83.90405795 3.84988305 83.90405795 1 85 C-6.73916726 85.58071674 -12.73982322 85.66320933 -18.83984375 80.41796875 C-23.14563038 76.37634081 -25.67393183 73.14634614 -26.30078125 67.09765625 C-26.32341298 61.23603874 -26.2954469 56.94317035 -23 52 C-23.51949219 51.72027344 -24.03898437 51.44054688 -24.57421875 51.15234375 C-30.56540986 47.70823944 -34.54393323 44.2636979 -36.81640625 37.609375 C-38.23202115 31.8044636 -38.25931856 27.55415814 -36 22 C-33.1954618 18.63455416 -31.78511608 17.2354601 -27.453125 16.6640625 C-20.86235955 16.56882022 -20.86235955 16.56882022 -18 18 C-18.103125 16.845 -18.20625 15.69 -18.3125 14.5 C-18.32148116 9.45258816 -16.32896578 5.73194585 -13 2 C-8.86689079 -0.63325927 -4.75655672 -0.56807362 0 0 Z " fill="#ECEEEF" transform="translate(43,9)"/>
<path d="M0 0 C4.29452036 2.79934226 5.7155954 5.10899663 7.25 9.9375 C9.42651792 15.64912664 11.50332272 17.52469431 16.97265625 20 C19.87744866 21.43280704 20.89921707 22.99119332 22 26 C22.59866575 30.01961286 22.18471519 31.66878655 20.1875 35.25 C18 38 18 38 15 40 C8.07806367 40.44657654 8.07806367 40.44657654 4.5859375 39 C1.71488728 37.88974493 -0.43302616 37.73276981 -3.5 37.75 C-4.4178125 37.74484375 -5.335625 37.7396875 -6.28125 37.734375 C-9.19164358 38.0187238 -11.32199194 38.86360842 -14 40 C-18.15273393 40.44493578 -20.23563752 40.47560332 -23.8125 38.25 C-26.8262478 35.15014512 -27.85414043 33.37107993 -28.3125 29.0625 C-27.9491605 25.50177287 -27.08801522 23.88583762 -25 21 C-22.66015625 19.5859375 -22.66015625 19.5859375 -20.0625 18.375 C-14.63216829 15.35290235 -13.54312494 12.30004339 -11.84765625 6.50390625 C-9.89312075 0.7303705 -5.75105519 -0.9585092 0 0 Z " fill="#ABDDDD" transform="translate(53,44)"/>
<path d="M0 0 C4.17793068 2.49053344 7.11599394 5.49931886 9 10 C9.20625 11.155 9.4125 12.31 9.625 13.5 C11.13134491 17.33433251 11.38228439 17.533874 14.875 19.125 C15.58527344 19.4240625 16.29554687 19.723125 17.02734375 20.03125 C20.50329329 21.73825096 22.31167233 24.62334467 24 28 C24.40331428 33.24308569 23.86051133 36.56127553 21 41 C16.55310788 45.01304899 14.03818338 46.22194261 8.00390625 46.16796875 C6 46 6 46 3.625 45 C-2.63261746 42.61614573 -8.87221563 43.82123223 -15 46 C-19.2069297 46.45074247 -21.39808168 46.30686032 -25.1875 44.375 C-28.7074252 41.40261872 -31.46703379 38.71921535 -32.3828125 34.046875 C-32.6746341 28.94972447 -31.39090366 25.9263095 -28 22 C-25.30185097 19.97638823 -22.9552511 18.31841703 -19.75 17.25 C-17.17374345 15.40981675 -17.28962383 13.13262597 -16.6953125 10.171875 C-15.48580614 6.39386637 -12.85694583 3.67838671 -10 1 C-6.73418475 -0.63290762 -3.51603041 -0.67786532 0 0 Z M-12 7 C-13.29390738 9.80820008 -13.29390738 9.80820008 -14.1875 12.875 C-16.46029825 18.86294924 -19.06677472 21.04023045 -24.79296875 23.71875 C-27.36317687 25.21083542 -28.01285768 26.23600149 -29 29 C-29.52055293 32.99090581 -29.16996586 34.69523363 -27.1875 38.25 C-25.11320337 41.14542239 -25.11320337 41.14542239 -22 43 C-18.51730433 43.25797746 -15.8627776 43.36208371 -12.6171875 42 C-9.73267094 40.89785636 -7.576421 40.73271674 -4.5 40.75 C-3.5821875 40.74484375 -2.664375 40.7396875 -1.71875 40.734375 C1.1928233 41.01883906 3.31569508 41.87572943 6 43 C10.25255629 43.69265121 13.15871131 43.51208877 16.875 41.25 C19.81923695 38.13257264 20.85734167 36.34098834 21.3125 32.0625 C20.93362636 28.34953831 20.42175545 26.86207462 18 24 C16.55406874 23.28678535 15.09383642 22.60226457 13.625 21.9375 C9.21793759 19.71257529 7.99385173 17.51372238 6.25 12.9375 C5.92515625 11.91527344 5.6003125 10.89304687 5.265625 9.83984375 C3.74405907 6.42571278 2.10747303 5.02557675 -1 3 C-6.14230839 2.1429486 -8.31320759 3.48372909 -12 7 Z " fill="#4A4777" transform="translate(54,41)"/>
<path d="M0 0 C2.375 1.4375 2.375 1.4375 4 4 C5.0502757 8.99617131 4.37557918 12.97883255 1.8125 17.375 C-0.39440344 20.49574797 -2.38020418 22.55208167 -6 24 C-8.625 24.375 -8.625 24.375 -11 24 C-13.5048111 22.12139167 -13.98700625 21.03898126 -15 18 C-15.56362271 12.13832379 -14.48342807 8.58405518 -11 4 C-7.46523038 0.37221012 -5.07641933 -0.86407138 0 0 Z " fill="#A7D6D8" transform="translate(85,31)"/>
<path d="M0 0 C3.72948526 1.4960891 5.93375486 4.48615768 8.03515625 7.81640625 C9.22727063 11.39274938 9.29442199 14.05705308 9.03515625 17.81640625 C7.87875819 20.12920236 6.86105797 21.99050453 5.03515625 23.81640625 C0.93226093 24.38890327 -0.65852833 24.02061653 -4.15234375 21.69140625 C-8.30488701 17.78954145 -10.11335308 13.87799686 -10.40234375 8.19140625 C-10.27398633 5.15190263 -10.00951049 3.89457305 -8.46484375 1.19140625 C-5.50746773 -0.43515056 -3.32130746 -0.58976488 0 0 Z " fill="#4B4878" transform="translate(20.96484375,31.18359375)"/>
<path d="M0 0 C3.18331041 3.26493375 4.25443948 5.97539984 4.4375 10.4375 C4.2263521 14.90176994 3.15384598 18.0911684 1 22 C-2 24 -2 24 -5.4375 24 C-9 23 -9 23 -11.4375 20.625 C-13.58029402 15.65371788 -13.80772558 11.33732392 -13 6 C-10.26093782 -0.57886897 -6.76444907 -1.74942648 0 0 Z " fill="#4D4A79" transform="translate(43,15)"/>
<path d="M0 0 C3.18331041 3.26493375 4.25443948 5.97539984 4.4375 10.4375 C4.2263521 14.90176994 3.15384598 18.0911684 1 22 C-2 24 -2 24 -5.5 23.875 C-9 23 -9 23 -10.875 21.1875 C-13.32850097 16.41680367 -13.68455075 11.27560441 -13 6 C-9.49652413 -0.53982163 -7.27798061 -1.88223637 0 0 Z " fill="#4C4979" transform="translate(66,15)"/>
<path d="M0 0 C4.54363464 5.92647996 4.67553755 10.57860157 4 18 C2.29521031 23.41636038 -1.53433125 26.76951622 -6 30 C-9.22282413 31.07427471 -11.61511153 31.1332963 -15 31.125 C-16.051875 31.12757812 -17.10375 31.13015625 -18.1875 31.1328125 C-21 31 -21 31 -24 30 C-25.66458673 29.90691456 -27.33281997 29.87003815 -29 29.875 C-29.86625 29.87242188 -30.7325 29.86984375 -31.625 29.8671875 C-34.15011695 29.90405795 -34.15011695 29.90405795 -37 31 C-43.49874237 31.48764012 -49.458986 31.89368552 -55 28 C-55.33 27.34 -55.66 26.68 -56 26 C-55.2884375 26.32484375 -54.576875 26.6496875 -53.84375 26.984375 C-50.86034291 28.04987753 -48.65320049 28.26771461 -45.5 28.25 C-44.5821875 28.25515625 -43.664375 28.2603125 -42.71875 28.265625 C-39.8086379 27.9813037 -37.68628958 27.11457072 -35 26 C-31.59332514 25.56861473 -28.19973319 25.37437226 -25.08984375 26.99609375 C-21.02623856 28.94814334 -16.40007285 28.43363037 -12 28 C-8.58025081 26.71005207 -8.58025081 26.71005207 -6 25 C-5.01 24.67 -4.02 24.34 -3 24 C-1.85790183 22.21771064 -1.85790183 22.21771064 -1 20 C-0.62875 19.29875 -0.2575 18.5975 0.125 17.875 C1.85791797 12.18112667 1.52902909 5.7338591 0 0 Z " fill="#5EC2BE" transform="translate(81,63)"/>
<path d="M0 0 C2.375 1.4375 2.375 1.4375 4 4 C5.0502757 8.99617131 4.37557918 12.97883255 1.8125 17.375 C-0.39440344 20.49574797 -2.38020418 22.55208167 -6 24 C-8.625 24.375 -8.625 24.375 -11 24 C-13.5048111 22.12139167 -13.98700625 21.03898126 -15 18 C-15.56362271 12.13832379 -14.48342807 8.58405518 -11 4 C-7.46523038 0.37221012 -5.07641933 -0.86407138 0 0 Z M-7.625 5.3125 C-11.21742049 9.33784498 -11.21742049 9.33784498 -12.25 14.5 C-12.28158536 18.11279881 -12.28158536 18.11279881 -10 21 C-6.98627512 20.92991337 -4.79678379 20.70825226 -2.48828125 18.65625 C0.06880065 15.43242182 1.32398882 12.83444175 1.4375 8.6875 C1.38208418 4.96950269 1.38208418 4.96950269 -1 3 C-5.08281492 2.55931297 -5.08281492 2.55931297 -7.625 5.3125 Z " fill="#494576" transform="translate(85,31)"/>
<path d="M0 0 C3.70162887 0.08047019 5.49423496 0.56258159 8.3125 3 C10.48844869 6.86835322 11.24959651 10.5571822 11 15 C10.01 16.485 10.01 16.485 9 18 C5.42132745 17.7559996 3.4684894 17.39251815 0.6875 15.0625 C-1.60516162 10.90174372 -2.25199677 6.74593909 -2 2 C-1.34 1.34 -0.68 0.68 0 0 Z " fill="#A8D8DA" transform="translate(16,34)"/>
<path d="M0 0 C2.49710982 0.34442894 3.82154665 0.84703999 5.75 2.5 C7.64320712 6.28641423 7.70139352 9.85070362 7 14 C5 17.0625 5 17.0625 3 19 C0.50289018 18.65557106 -0.82154665 18.15296001 -2.75 16.5 C-4.64320712 12.71358577 -4.70139352 9.14929638 -4 5 C-2 1.9375 -2 1.9375 0 0 Z " fill="#A8D8DA" transform="translate(60,17)"/>
<path d="M0 0 C2.49710982 0.34442894 3.82154665 0.84703999 5.75 2.5 C7.64320712 6.28641423 7.70139352 9.85070362 7 14 C5 17.0625 5 17.0625 3 19 C0.50289018 18.65557106 -0.82154665 18.15296001 -2.75 16.5 C-4.64320712 12.71358577 -4.70139352 9.14929638 -4 5 C-2 1.9375 -2 1.9375 0 0 Z " fill="#A8D8DA" transform="translate(37,17)"/>
<path d="M0 0 C2.73641258 2.2369087 3.89544403 3.41879182 4.53125 6.953125 C4.45764314 14.71864884 3.97654909 20.64366813 -1.390625 26.5234375 C-4.60433138 29.44960173 -7.83359191 30.90879788 -12 32 C-12.66 31.01 -13.32 30.02 -14 29 C-13.48050781 28.78085937 -12.96101563 28.56171875 -12.42578125 28.3359375 C-6.30928893 25.55468591 -3.10747026 22.61280615 0.3125 16.75 C1.68390072 11.2643971 1.56848403 5.43322867 0 0 Z " fill="#5CC3BE" transform="translate(92,31)"/>
<path d="M0 0 C0.66 0.33 1.32 0.66 2 1 C1.09674384 2.32176485 0.17682097 3.63215066 -0.75 4.9375 C-1.26046875 5.66839844 -1.7709375 6.39929687 -2.296875 7.15234375 C-4.19177915 9.20805399 -5.27425729 9.62669176 -8 10 C-6.5682479 4.98886765 -4.01554307 3.05530451 0 0 Z " fill="#504D7C" transform="translate(79,31)"/>
<path d="M0 0 C0.33 0 0.66 0 1 0 C0.7357513 5.37305699 0.7357513 5.37305699 0 8 C-2.5625 10 -2.5625 10 -5 11 C-4.54917531 9.53932801 -4.08906463 8.08151968 -3.625 6.625 C-3.36976562 5.81289063 -3.11453125 5.00078125 -2.8515625 4.1640625 C-2 2 -2 2 0 0 Z " fill="#433E71" transform="translate(39,51)"/>
</svg>
