<?xml version="1.0" encoding="UTF-8"?>
<svg version="1.1" xmlns="http://www.w3.org/2000/svg" width="96" height="96">
<path d="M0 0 C3.19844712 1.96781784 5.73876739 4.29684485 8.3515625 6.98046875 C10.83417301 5.8770863 12.71500326 4.68971615 14.8515625 2.98046875 C21.36157623 -2.22754224 28.35493175 -1.82003696 36.3515625 -1.01953125 C42.73986509 1.08381493 47.06806706 6.26559607 50.3515625 11.98046875 C52.3766608 18.04341548 52.46143219 25.42028916 49.7265625 31.23046875 C47.43577108 35.21875308 44.48820966 38.63471178 41.3515625 41.98046875 C42.25519531 42.02945313 43.15882812 42.0784375 44.08984375 42.12890625 C45.26933594 42.20367187 46.44882813 42.2784375 47.6640625 42.35546875 C48.83582031 42.42507812 50.00757812 42.4946875 51.21484375 42.56640625 C54.3515625 42.98046875 54.3515625 42.98046875 57.3515625 44.98046875 C57.71484375 47.94921875 57.71484375 47.94921875 57.6640625 51.48046875 C57.66019531 52.64578125 57.65632813 53.81109375 57.65234375 55.01171875 C57.3515625 57.98046875 57.3515625 57.98046875 55.3515625 59.98046875 C55.02781809 63.23566758 55.02781809 63.23566758 55.04296875 67.0703125 C55.01781052 68.50846763 54.99241247 69.94661857 54.96679688 71.38476562 C54.93803658 73.65387916 54.91402157 75.92292017 54.89526367 78.19213867 C54.87362396 80.3810786 54.83418923 82.56916665 54.79296875 84.7578125 C54.77951416 86.06999756 54.76605957 87.38218262 54.75219727 88.73413086 C54.3515625 91.98046875 54.3515625 91.98046875 53.32676697 93.65910339 C50.22333081 95.73522923 46.95687602 95.39711823 43.34765625 95.36865234 C42.12527756 95.37653778 42.12527756 95.37653778 40.87820435 95.38458252 C38.18162936 95.39779776 35.4856436 95.38903918 32.7890625 95.37890625 C30.91723517 95.38092655 29.04540861 95.38383762 27.17358398 95.38760376 C23.24943553 95.39202917 19.32549185 95.38558907 15.40136719 95.37158203 C10.36715903 95.35449002 5.33343066 95.36433004 0.29924011 95.38229942 C-3.56632106 95.39313139 -7.43176818 95.38969362 -11.29733276 95.38191605 C-13.15371762 95.37991241 -15.01011277 95.38237902 -16.8664856 95.38935471 C-19.45944719 95.39695957 -22.05162793 95.38537889 -24.64453125 95.36865234 C-25.41449432 95.37472504 -26.1844574 95.38079773 -26.97775269 95.38705444 C-32.13292525 95.32533433 -32.13292525 95.32533433 -34.62364197 93.65910339 C-36.35335642 90.82579811 -36.05631493 88.02777638 -36.08984375 84.7578125 C-36.10305161 84.05652725 -36.11625946 83.355242 -36.12986755 82.63270569 C-36.17074431 80.39441934 -36.19243291 78.15654386 -36.2109375 75.91796875 C-36.2347096 73.67594752 -36.26278934 71.4343142 -36.30271912 69.19252014 C-36.33825773 67.16097661 -36.35809446 65.12917666 -36.37719727 63.09741211 C-36.32058172 59.87956259 -36.32058172 59.87956259 -38.6484375 57.98046875 C-38.94921875 55.01171875 -38.94921875 55.01171875 -38.9609375 51.48046875 C-38.97769531 50.31515625 -38.99445312 49.14984375 -39.01171875 47.94921875 C-38.89183594 46.96953125 -38.77195313 45.98984375 -38.6484375 44.98046875 C-35.15575511 42.65201382 -33.74107156 42.81342246 -29.6484375 42.98046875 C-25.75384676 43.19128726 -25.75384676 43.19128726 -22.6484375 41.98046875 C-23.11894531 41.48417969 -23.58945312 40.98789062 -24.07421875 40.4765625 C-30.36075145 33.61734359 -33.2391113 28.05851951 -32.9296875 18.62109375 C-32.2161075 11.92137038 -28.64180565 6.37550302 -23.6484375 1.98046875 C-16.73063502 -2.24323947 -7.62047648 -2.93354626 0 0 Z " fill="#D0A47C" transform="translate(38.6484375,1.01953125)"/>
<path d="M0 0 C3.95137206 2.2013656 6.78271794 5.04223973 9.8125 8.375 C12.73433307 7.04515037 14.89697758 5.54869277 17.25 3.375 C22.0928381 -0.82280892 26.07788587 -2.12773284 32.4765625 -1.92578125 C37.53356289 -1.27462903 41.09527317 0.61017413 44.64453125 4.2578125 C48.46180396 9.2461923 49.66724934 13.49125989 49.25 19.75 C48.53795769 24.02225386 47.2509113 26.82538866 44.8125 30.375 C44.28374268 31.20854004 43.75498535 32.04208008 43.21020508 32.90087891 C39.2236972 37.99226339 36.05358882 40.46712858 29.67480469 41.36206055 C24.4988863 41.80164083 19.34574249 41.82518098 14.15454102 41.73364258 C10.88214629 41.68760055 7.62507771 41.75358344 4.35351562 41.83007812 C-12.67165741 41.92756198 -12.67165741 41.92756198 -18.61463928 36.68730164 C-23.81359054 31.23550343 -27.59641259 24.60022858 -27.6875 16.9375 C-27.51750447 11.31219348 -25.95877417 7.53911523 -22.1875 3.375 C-15.43768584 -1.88985504 -7.98780765 -3.70204162 0 0 Z " fill="#A9DBDB" transform="translate(37.1875,4.625)"/>
<path d="M0 0 C3.19844712 1.96781784 5.73876739 4.29684485 8.3515625 6.98046875 C10.83417301 5.8770863 12.71500326 4.68971615 14.8515625 2.98046875 C21.36157623 -2.22754224 28.35493175 -1.82003696 36.3515625 -1.01953125 C42.73986509 1.08381493 47.06806706 6.26559607 50.3515625 11.98046875 C52.3766608 18.04341548 52.46143219 25.42028916 49.7265625 31.23046875 C47.43577108 35.21875308 44.48820966 38.63471178 41.3515625 41.98046875 C42.25519531 42.02945313 43.15882812 42.0784375 44.08984375 42.12890625 C45.26933594 42.20367187 46.44882813 42.2784375 47.6640625 42.35546875 C48.83582031 42.42507812 50.00757812 42.4946875 51.21484375 42.56640625 C54.3515625 42.98046875 54.3515625 42.98046875 57.3515625 44.98046875 C57.71484375 47.94921875 57.71484375 47.94921875 57.6640625 51.48046875 C57.66019531 52.64578125 57.65632813 53.81109375 57.65234375 55.01171875 C57.3515625 57.98046875 57.3515625 57.98046875 55.3515625 59.98046875 C55.02781809 63.23566758 55.02781809 63.23566758 55.04296875 67.0703125 C55.01781052 68.50846763 54.99241247 69.94661857 54.96679688 71.38476562 C54.93803658 73.65387916 54.91402157 75.92292017 54.89526367 78.19213867 C54.87362396 80.3810786 54.83418923 82.56916665 54.79296875 84.7578125 C54.77951416 86.06999756 54.76605957 87.38218262 54.75219727 88.73413086 C54.3515625 91.98046875 54.3515625 91.98046875 53.32676697 93.65910339 C50.22333081 95.73522923 46.95687602 95.39711823 43.34765625 95.36865234 C42.12527756 95.37653778 42.12527756 95.37653778 40.87820435 95.38458252 C38.18162936 95.39779776 35.4856436 95.38903918 32.7890625 95.37890625 C30.91723517 95.38092655 29.04540861 95.38383762 27.17358398 95.38760376 C23.24943553 95.39202917 19.32549185 95.38558907 15.40136719 95.37158203 C10.36715903 95.35449002 5.33343066 95.36433004 0.29924011 95.38229942 C-3.56632106 95.39313139 -7.43176818 95.38969362 -11.29733276 95.38191605 C-13.15371762 95.37991241 -15.01011277 95.38237902 -16.8664856 95.38935471 C-19.45944719 95.39695957 -22.05162793 95.38537889 -24.64453125 95.36865234 C-25.41449432 95.37472504 -26.1844574 95.38079773 -26.97775269 95.38705444 C-32.13292525 95.32533433 -32.13292525 95.32533433 -34.62364197 93.65910339 C-36.35335642 90.82579811 -36.05631493 88.02777638 -36.08984375 84.7578125 C-36.10305161 84.05652725 -36.11625946 83.355242 -36.12986755 82.63270569 C-36.17074431 80.39441934 -36.19243291 78.15654386 -36.2109375 75.91796875 C-36.2347096 73.67594752 -36.26278934 71.4343142 -36.30271912 69.19252014 C-36.33825773 67.16097661 -36.35809446 65.12917666 -36.37719727 63.09741211 C-36.32058172 59.87956259 -36.32058172 59.87956259 -38.6484375 57.98046875 C-38.94921875 55.01171875 -38.94921875 55.01171875 -38.9609375 51.48046875 C-38.97769531 50.31515625 -38.99445312 49.14984375 -39.01171875 47.94921875 C-38.89183594 46.96953125 -38.77195313 45.98984375 -38.6484375 44.98046875 C-35.15575511 42.65201382 -33.74107156 42.81342246 -29.6484375 42.98046875 C-25.75384676 43.19128726 -25.75384676 43.19128726 -22.6484375 41.98046875 C-23.11894531 41.48417969 -23.58945312 40.98789062 -24.07421875 40.4765625 C-30.36075145 33.61734359 -33.2391113 28.05851951 -32.9296875 18.62109375 C-32.2161075 11.92137038 -28.64180565 6.37550302 -23.6484375 1.98046875 C-16.73063502 -2.24323947 -7.62047648 -2.93354626 0 0 Z M-25.0234375 8.48046875 C-28.87142294 14.40044634 -29.39408629 18.94586113 -28.6484375 25.98046875 C-27.84480776 29.13184539 -26.47821172 31.31360956 -24.6484375 33.98046875 C-24.11968018 34.81400879 -23.59092285 35.64754883 -23.04614258 36.50634766 C-19.0596347 41.59773214 -15.88952632 44.07259733 -9.51074219 44.9675293 C-4.3348238 45.40710958 0.81832001 45.43064973 6.00952148 45.33911133 C9.28191621 45.2930693 12.53898479 45.35905219 15.81054688 45.43554688 C28.16209351 45.74739915 28.16209351 45.74739915 38.77870178 40.29277039 C43.94749412 34.87259786 47.74254041 28.22104964 47.9140625 20.60546875 C47.71964836 14.46029145 45.6128633 10.35988663 41.3515625 5.98046875 C36.86384362 2.49942895 32.222275 1.30642163 26.58203125 1.59765625 C19.55688542 2.80337305 15.01298896 6.85289964 10.3515625 11.98046875 C7.42972943 10.65061912 5.26708492 9.15416152 2.9140625 6.98046875 C-1.9340707 2.77806999 -5.90631514 1.50410319 -12.3046875 1.6640625 C-17.55169862 2.372409 -21.41680759 4.68401621 -25.0234375 8.48046875 Z M-32.6484375 59.98046875 C-32.6484375 69.88046875 -32.6484375 79.78046875 -32.6484375 89.98046875 C-30.1677422 92.46116405 -28.73052792 92.22315449 -25.34490967 92.25152588 C-24.60718323 92.24747742 -23.86945679 92.24342896 -23.109375 92.23925781 C-22.33200989 92.24276245 -21.55464478 92.24626709 -20.75372314 92.24987793 C-18.17687118 92.25870081 -15.6002924 92.2528442 -13.0234375 92.24609375 C-11.23746691 92.24744024 -9.45149668 92.24938064 -7.66552734 92.25189209 C-3.91956091 92.2548441 -0.17368975 92.25054324 3.57226562 92.24121094 C8.38119083 92.22981634 13.18989281 92.23637541 17.99880981 92.24835587 C21.68759858 92.25557239 25.37633417 92.2532875 29.06512451 92.24810028 C30.83860297 92.24676321 32.61208621 92.24841351 34.38555908 92.25305939 C36.86133675 92.25812124 39.3367496 92.25041938 41.8125 92.23925781 C42.55022644 92.24330627 43.28795288 92.24735474 44.04803467 92.25152588 C48.15226006 92.34215927 48.15226006 92.34215927 51.3515625 89.98046875 C51.3515625 80.08046875 51.3515625 70.18046875 51.3515625 59.98046875 C23.6315625 59.98046875 -4.0884375 59.98046875 -32.6484375 59.98046875 Z " fill="#393939" transform="translate(38.6484375,1.01953125)"/>
<path d="M0 0 C0 0.66 0 1.32 0 2 C0.98749741 1.99777939 1.97499481 1.99555878 2.99241638 1.99327087 C12.27799029 1.97303918 21.56355975 1.95802773 30.84915066 1.94818783 C35.6234828 1.94295907 40.39779721 1.93586156 45.17211914 1.92456055 C49.77566262 1.9137314 54.37918899 1.90772311 58.98274422 1.90512276 C60.74309623 1.90326856 62.50344726 1.89964804 64.26379204 1.89426994 C66.72072277 1.88705914 69.17758195 1.88600907 71.63452148 1.88647461 C72.73719109 1.8810817 72.73719109 1.8810817 73.86213684 1.87557983 C78.88594784 1.88594784 78.88594784 1.88594784 80 3 C80.1328125 4.8125 80.1328125 4.8125 80.125 7 C80.12886719 8.0828125 80.12886719 8.0828125 80.1328125 9.1875 C80 11 80 11 79 12 C76.26649252 12.10048523 73.55822108 12.13616261 70.82421875 12.12939453 C69.96736481 12.13114685 69.11051086 12.13289917 68.22769165 12.13470459 C65.3809408 12.13912417 62.53425153 12.13618475 59.6875 12.1328125 C57.71834298 12.13348551 55.74918603 12.13445551 53.7800293 12.13571167 C49.64729015 12.13718879 45.51457258 12.13503364 41.38183594 12.13037109 C36.07175479 12.1246738 30.76172419 12.12795273 25.4516449 12.13394356 C21.38374447 12.1375488 17.31585611 12.13641076 13.24795532 12.13381577 C11.28943882 12.13314639 9.33092124 12.13397527 7.37240601 12.13629532 C4.640168 12.13882124 1.90801303 12.13498211 -0.82421875 12.12939453 C-2.05076675 12.13243088 -2.05076675 12.13243088 -3.30209351 12.13552856 C-8.88573754 12.11426246 -8.88573754 12.11426246 -10 11 C-10.14115161 8.32941149 -10.04247107 5.67567762 -10 3 C-3.375 0 -3.375 0 0 0 Z " fill="#E9BA8D" transform="translate(13,46)"/>
</svg>
