<?xml version="1.0" encoding="UTF-8"?>
<svg version="1.1" xmlns="http://www.w3.org/2000/svg" width="50" height="50">
<path d="M0 0 C5.21745066 0.52506828 9.22651111 1.7798559 13.9375 4.0625 C15.08089844 4.61035156 16.22429688 5.15820312 17.40234375 5.72265625 C18.25957031 6.14417969 19.11679687 6.56570312 20 7 C19.125 12.875 19.125 12.875 18 14 C16.36527118 14.08700342 14.72685945 14.10701063 13.08984375 14.09765625 C12.10048828 14.09443359 11.11113281 14.09121094 10.09179688 14.08789062 C9.05087891 14.07951172 8.00996094 14.07113281 6.9375 14.0625 C5.89271484 14.05798828 4.84792969 14.05347656 3.77148438 14.04882812 C1.1809334 14.03699913 -1.40950559 14.02051689 -4 14 C-4 14.66 -4 15.32 -4 16 C3.26 16 10.52 16 18 16 C18 17.98 18 19.96 18 22 C16.02 22 14.04 22 12 22 C12 22.66 12 23.32 12 24 C13.65 24 15.3 24 17 24 C17 25.98 17 27.96 17 30 C15.02 30 13.04 30 11 30 C11 30.66 11 31.32 11 32 C12.65 32 14.3 32 16 32 C16 33.98 16 35.96 16 38 C14.02 38 12.04 38 10 38 C10 38.66 10 39.32 10 40 C11.65 40 13.3 40 15 40 C15 41.98 15 43.96 15 46 C12.03 46 9.06 46 6 46 C5.34 44.68 4.68 43.36 4 42 C-3.26 42 -10.52 42 -18 42 C-18.66 43.32 -19.32 44.64 -20 46 C-21.98 46 -23.96 46 -26 46 C-28.84946464 39.69047114 -31.08214712 31.89868792 -30 25 C-27.375 23.0625 -27.375 23.0625 -24 21 C-22.9557156 19.61565375 -21.95720026 18.1959295 -21 16.75 C-19.5078125 14.6171875 -19.5078125 14.6171875 -18 13 C-14.875 12.875 -14.875 12.875 -12 13 C-9.92293518 10.21829104 -9.92293518 10.21829104 -8 7 C-6.03081154 5.62156808 -4.03335209 4.28189588 -2 3 C-1.34 2.01 -0.68 1.02 0 0 Z M-13 15 C-12 17 -12 17 -12 17 Z M-5 16 C-4 18 -4 18 -4 18 Z M-14 17 C-13 19 -13 19 -13 19 Z M-6 19 C-5 21 -5 21 -5 21 Z M-15 20 C-14 22 -14 22 -14 22 Z M-7 21 C-6 23 -6 23 -6 23 Z M-16 22 C-15 26 -15 26 -15 26 Z M-8 24 C-7 26 -7 26 -7 26 Z M-14 27 C-12.515 27.99 -12.515 27.99 -11 29 C-10.34 28.34 -9.68 27.68 -9 27 C-10.65 27 -12.3 27 -14 27 Z " fill="#5AC0BD" transform="translate(30,0)"/>
<path d="M0 0 C1.32 0 2.64 0 4 0 C4 2.31 4 4.62 4 7 C2.68 7 1.36 7 0 7 C0 4.69 0 2.38 0 0 Z " fill="#5ABFBD" transform="translate(30,42)"/>
<path d="M0 0 C1.32 0 2.64 0 4 0 C4 2.31 4 4.62 4 7 C2.68 7 1.36 7 0 7 C0 4.69 0 2.38 0 0 Z " fill="#5ABFBD" transform="translate(24,42)"/>
<path d="M0 0 C1.32 0 2.64 0 4 0 C4 2.31 4 4.62 4 7 C2.68 7 1.36 7 0 7 C0 4.69 0 2.38 0 0 Z " fill="#5ABFBD" transform="translate(18,42)"/>
<path d="M0 0 C1.32 0 2.64 0 4 0 C4 2.31 4 4.62 4 7 C2.68 7 1.36 7 0 7 C0 4.69 0 2.38 0 0 Z " fill="#5ABFBD" transform="translate(12,42)"/>
</svg>
