<?xml version="1.0" encoding="UTF-8"?>
<svg version="1.1" xmlns="http://www.w3.org/2000/svg" width="64" height="64">
<path d="M0 0 C9.25151948 0.35342883 9.25151948 0.35342883 11.8125 3.078125 C12.78569267 5.11963443 13.48382461 7.08637022 14.1015625 9.2578125 C15.98883467 11.14508467 19.40678994 10.56415535 21.97265625 10.68359375 C24.1015625 11.2578125 24.1015625 11.2578125 25.38671875 13.30078125 C25.62261719 13.94660156 25.85851563 14.59242187 26.1015625 15.2578125 C25 16.7734375 25 16.7734375 23.1015625 18.2578125 C20.140625 18.3671875 20.140625 18.3671875 16.7265625 18.0078125 C15.04433594 17.84539063 15.04433594 17.84539063 13.328125 17.6796875 C10.1015625 17.2578125 10.1015625 17.2578125 7.44921875 16.58984375 C4.56557229 16.1820069 3.409905 16.76153064 0.9140625 18.1953125 C-2.7425053 20.2578125 -2.7425053 20.2578125 -4.8984375 20.2578125 C-4.99125 22.0521875 -4.99125 22.0521875 -5.0859375 23.8828125 C-5.6663546 28.72246688 -7.66447298 30.70833925 -10.8984375 34.2578125 C-12.2033859 36.9702743 -12.2033859 36.9702743 -12.8984375 39.2578125 C-17.7734375 38.3828125 -17.7734375 38.3828125 -18.8984375 37.2578125 C-18.57051892 33.84745922 -18.24138266 30.95856378 -16.7265625 27.86328125 C-15.35630484 23.55214041 -17.48403634 20.79638768 -19.3828125 16.91015625 C-20.68407206 14.63295201 -21.96233088 12.81733419 -23.7109375 10.8828125 C-25.8984375 8.2578125 -25.8984375 8.2578125 -26.2109375 5.3828125 C-26.1078125 4.6815625 -26.0046875 3.9803125 -25.8984375 3.2578125 C-24.0859375 3.5078125 -24.0859375 3.5078125 -21.8984375 4.2578125 C-21.4446875 4.9384375 -20.9909375 5.6190625 -20.5234375 6.3203125 C-19.01342201 8.51469502 -19.01342201 8.51469502 -16.2109375 8.8828125 C-9.66470675 7.64767462 -6.09636769 0.54226451 0 0 Z " fill="#5AC0BD" transform="translate(30.8984375,18.7421875)"/>
<path d="M0 0 C2.81256281 -0.02684312 5.62487241 -0.04676188 8.4375 -0.0625 C9.23994141 -0.07087891 10.04238281 -0.07925781 10.86914062 -0.08789062 C12.91295221 -0.0965143 14.95683902 -0.0522815 17 0 C18 1 18 1 18.375 4.3125 C18 8 18 8 15.90234375 10.21484375 C12.36544063 12.39030099 10.30128996 12.41621374 6.1875 12.25 C5.02605469 12.21390625 3.86460938 12.1778125 2.66796875 12.140625 C1.78753906 12.09421875 0.90710938 12.0478125 0 12 C0 8.04 0 4.08 0 0 Z " fill="#5ABFBD" transform="translate(29,5)"/>
<path d="M0 0 C1.3566879 7.40011581 1.3566879 7.40011581 -0.375 10.3125 C-0.91125 10.869375 -1.4475 11.42625 -2 12 C-2.33 12.99 -2.66 13.98 -3 15 C-7.69329073 13.55591054 -7.69329073 13.55591054 -9 11.1875 C-9 7.11844777 -6.5442839 4.61025771 -3.9375 1.6875 C-2 0 -2 0 0 0 Z " fill="#5AC1BC" transform="translate(12,37)"/>
<path d="M0 0 C0.90105469 0.00902344 1.80210938 0.01804687 2.73046875 0.02734375 C3.41753906 0.03894531 4.10460938 0.05054687 4.8125 0.0625 C5.8125 2.0625 5.8125 2.0625 5.1953125 4.109375 C3.8125 6.0625 3.8125 6.0625 1.4296875 6.890625 C0.52476563 7.02984375 -0.38015625 7.1690625 -1.3125 7.3125 C-2.22257812 7.46203125 -3.13265625 7.6115625 -4.0703125 7.765625 C-4.76898438 7.86359375 -5.46765625 7.9615625 -6.1875 8.0625 C-8.1875 5.0625 -8.1875 5.0625 -8.1875 1.0625 C-5.17259443 0.05753148 -3.14568308 -0.04085303 0 0 Z " fill="#59C0BE" transform="translate(51.1875,18.9375)"/>
<path d="M0 0 C1.98 0 3.96 0 6 0 C6 1.98 6 3.96 6 6 C4.02 6 2.04 6 0 6 C0 4.02 0 2.04 0 0 Z " fill="#5AC1BB" transform="translate(53,6)"/>
</svg>
